<?xml version="1.0" encoding="UTF-8"?>
<svg width="43px" height="43px" viewBox="0 0 43 43" version="1.1" xmlns="http://www.w3.org/2000/svg" xmlns:xlink="http://www.w3.org/1999/xlink">
    <!-- Generator: Sketch 46.2 (44496) - http://www.bohemiancoding.com/sketch -->
    <title>Fill 33 Copy 2</title>
    <desc>Created with Sketch.</desc>
    <defs></defs>
    <g id="Page-1" stroke="none" stroke-width="1" fill="none" fill-rule="evenodd">
        <path d="M36.6427188,36.6400313 L30.2652813,36.6400313 L30.2652813,26.6613438 C30.2652813,24.2815625 30.2249688,21.2205 26.9515938,21.2205 C23.633875,21.2205 23.1272813,23.8139375 23.1272813,26.4906875 L23.1272813,36.6400313 L16.7565625,36.6400313 L16.7565625,16.119625 L22.870625,16.119625 L22.870625,18.925375 L22.9579688,18.925375 C23.8085625,17.3115313 25.8886875,15.6103438 28.9914063,15.6103438 C35.4494688,15.6103438 36.6427188,19.8592813 36.6427188,25.386125 L36.6427188,36.6400313 Z M9.56615625,13.3165625 C7.5169375,13.3165625 5.86546875,11.6597188 5.86546875,9.61721875 C5.86546875,7.5760625 7.5169375,5.91921875 9.56615625,5.91921875 C11.6059688,5.91921875 13.2628125,7.5760625 13.2628125,9.61721875 C13.2628125,11.6597188 11.6059688,13.3165625 9.56615625,13.3165625 L9.56615625,13.3165625 Z M12.7562187,36.6400313 L6.3720625,36.6400313 L6.3720625,16.119625 L12.7562187,16.119625 L12.7562187,36.6400313 Z M41.2087813,0 L1.7925625,0 C0.80221875,0 0,0.80221875 0,1.79121875 L0,41.2074375 C0,42.1977813 0.80221875,43 1.7925625,43 L41.2087813,43 C42.1977813,43 43,42.1977813 43,41.2074375 L43,1.79121875 C43,0.80221875 42.1977813,0 41.2087813,0 L41.2087813,0 Z" id="Fill-33-Copy-2" fill="#C0E730"></path>
    </g>
</svg>