<?xml version="1.0" encoding="UTF-8"?>
<svg width="50px" height="43px" viewBox="0 0 50 43" version="1.1" xmlns="http://www.w3.org/2000/svg" xmlns:xlink="http://www.w3.org/1999/xlink">
    <!-- Generator: Sketch 46.2 (44496) - http://www.bohemiancoding.com/sketch -->
    <title>Group Copy</title>
    <desc>Created with Sketch.</desc>
    <defs></defs>
    <g id="Page-1" stroke="none" stroke-width="1" fill="none" fill-rule="evenodd">
        <g id="Group-Copy" fill-rule="nonzero">
            <path d="M48.7527465,42.3082195 L33.3663292,34.9114918 L33.2504281,1.38114918 C33.2477622,0.59840384 34.0649097,0.0826246755 34.7703453,0.421822787 L49.3573875,7.43631787 C49.7246405,7.61289892 49.9582201,7.98446811 49.9582201,8.39196285 L49.9582201,41.5502285 C49.9580931,42.169849 49.3110524,42.5767091 48.7527465,42.3082195 Z" id="Shape" fill="#C0E730"></path>
            <path d="M33.3663292,34.9114918 L16.7136315,26.9047915 L32.7453123,0.510049841 C33.0285275,0.0437793828 33.6194583,-0.131532216 34.1111179,0.104840121 L48.9020343,7.21746399 C49.4674491,7.48938104 49.6744971,8.18999271 49.3476127,8.72544841 L33.3663292,34.9114918 Z" id="Shape" fill="#B0D527"></path>
            <path d="M33.3663292,34.9114918 L16.7136315,26.9047915 L1.44984343,2.04913588 C1.02457633,1.35664872 1.76454107,0.536708375 2.49688909,0.888854917 L16.7136315,7.7252456 L33.3663292,34.9114918 Z" id="Shape" fill="#A2C327"></path>
            <path d="M15.508158,42.3080926 L0.476553035,35.0798214 C0.18521334,34.9396737 0,34.6450334 0,34.3218305 L0,0.983556187 C0,0.383612221 0.626729445,-0.0105532489 1.16751685,0.249557878 L16.7136315,7.7252456 L16.7136315,41.5501016 C16.7136315,42.1697221 16.0664638,42.5765821 15.508158,42.3080926 Z" id="Shape" fill="#92B610"></path>
        </g>
    </g>
</svg>