<?xml version="1.0" encoding="UTF-8"?>
<svg width="53px" height="43px" viewBox="0 0 53 43" version="1.1" xmlns="http://www.w3.org/2000/svg" xmlns:xlink="http://www.w3.org/1999/xlink">
    <!-- Generator: Sketch 46.2 (44496) - http://www.bohemiancoding.com/sketch -->
    <title>Fill 1 Copy</title>
    <desc>Created with Sketch.</desc>
    <defs></defs>
    <g id="Page-1" stroke="none" stroke-width="1" fill="none" fill-rule="evenodd">
        <path d="M52.9129014,5.0895597 C50.9666987,5.9527014 48.8733321,6.53639685 46.6774466,6.79930783 C48.9196308,5.45498943 50.6409537,3.3285522 51.4511825,0.79369352 C49.3545087,2.0371467 47.0296481,2.93997308 44.5576235,3.42776389 C42.5766968,1.31786195 39.7557777,0 36.6339166,0 C30.6382234,0 25.7785041,4.85971928 25.7785041,10.8554124 C25.7785041,11.7053259 25.8744088,12.5337435 26.0596039,13.3290906 C17.0363007,12.8760238 9.03818496,8.55370121 3.68406076,1.98588733 C2.74981734,3.58980965 2.21407422,5.45498943 2.21407422,7.44418381 C2.21407422,11.2092674 4.13051336,14.5328591 7.04237647,16.4790617 C5.26318016,16.4228418 3.58980965,15.935051 2.12643722,15.1215151 C2.1247837,15.1678139 2.1247837,15.2124591 2.1247837,15.2587579 C2.1247837,20.518631 5.86671794,24.9054413 10.8339166,25.9025187 C9.92282253,26.150548 8.9637762,26.2828302 7.97331282,26.2828302 C7.27387041,26.2828302 6.59427033,26.2150356 5.93120554,26.0893674 C7.31190156,30.4017689 11.3217074,33.5401654 16.0722938,33.6278023 C12.356816,36.5396654 7.67567775,38.2742165 2.58942511,38.2742165 C1.71305518,38.2742165 0.849913478,38.2229571 0,38.1237454 C4.80349933,41.2026149 10.509825,43 16.6411075,43 C36.6091136,43 47.5273601,26.4581042 47.5273601,12.1137474 C47.5273601,11.6424918 47.517439,11.1745434 47.4959431,10.7082484 C49.6174197,9.17873486 51.4577966,7.2672563 52.9129014,5.0895597" id="Fill-1-Copy" fill="#C0E730"></path>
    </g>
</svg>